<svg xmlns="http://www.w3.org/2000/svg" viewBox="54.92 107.8 23.53 13.97">
  <g fill="#ff91b4" stroke="#ae0f61">
    <path stroke-width=".265" d="M56.128 121.241q-.24 0-.423-.099-.17-.098-.184-.38.029-.452.156-.932.14-.48.254-.96.536-2.017 1.072-3.993.536-1.975 1.072-3.993.057-.212.113-.438.07-.24.127-.465.057-.24.113-.452.057-.212.085-.367.028-.197.056-.41.043-.21.268-.352.156.042.31.155.17.113.142.31-.014.283-.099.551-.07.254-.099.565-.183 1.143-.522 2.37-.324 1.228-.705 2.484-.367 1.242-.734 2.47-.367 1.213-.62 2.342l.027-.043q.537-.733 1.2-1.594.677-.861 1.425-1.75.762-.889 1.566-1.764.819-.889 1.609-1.68.804-.803 1.552-1.467.762-.677 1.411-1.129.367-.254.776-.508.424-.254.805-.451.38-.212.691-.339.325-.14.466-.155h.028q.057 0 .127.014.085.014.155.042.085.015.127.057.057.042.043.085 0 .042-.339.254-.325.197-.804.493-.48.297-1.045.664-.564.366-1.03.733-.55.424-1.284 1.101-.72.663-1.538 1.496-.804.818-1.65 1.75-.848.917-1.638 1.848-.776.917-1.453 1.792-.663.89-1.115 1.623-.085.155-.198.325-.112.169-.296.197Zm7.169-1.947q-.156 0-.34-.057-.183-.042-.338-.155-.155-.099-.254-.268-.099-.155-.099-.367 0-.211.142-.508.14-.31.352-.663.226-.353.494-.72.268-.38.536-.705.269-.339.494-.593.24-.268.381-.41h.043q.127 0 .282.142.17.127.17.282l-.198.268q-.198.254-.48.65-.282.38-.593.832-.31.437-.55.818-.24.381-.339.635-.099.254.043.254.55 0 1.143-.282.592-.296 1.213-.734.621-.451 1.242-.987.635-.55 1.242-1.073.014-.014.056-.014.113 0 .254.141.141.141.141.297 0 .127-.282.409t-.734.649q-.437.353-1.002.734-.564.38-1.129.705-.55.31-1.058.508-.494.212-.832.212Zm2.215-4.981q-.113 0-.226-.113-.099-.113-.014-.268.057-.1.198-.283.14-.197.296-.395.17-.197.325-.367.155-.169.24-.225.126 0 .268.127.155.113.155.254.014.084-.127.282-.141.183-.339.395-.183.212-.367.381-.183.17-.268.212Z"/>
    <path stroke-width=".265" d="M67.854 119.054q-.451 0-.818-.268-.353-.268-.353-.762 0-.268.155-.663.17-.395.438-.833.282-.451.62-.889.354-.451.72-.804.367-.353.72-.579.353-.226.635-.226.339 0 .55.283.226.282.226.606 0 .156-.07.381-.07.212-.184.424-.113.211-.268.38-.141.17-.296.227-.31-.113-.424-.424 0-.056.043-.099.042-.056.07-.084.24-.268.339-.48.113-.212.226-.536-.24.07-.55.296-.297.212-.607.522-.31.297-.621.65-.297.352-.536.705-.226.353-.367.677-.141.325-.141.565 0 .113.014.24.014.112.24.112.268 0 .677-.211.41-.212.875-.522.48-.31.973-.678t.918-.677q.437-.31.776-.522.338-.212.494-.212.197 0 .31.127.127.113.155.226-.028.099-.367.367-.338.254-.846.593-.494.338-1.087.72-.592.366-1.129.677-.536.296-.945.493-.41.198-.565.198Z"/>
    <path stroke-width=".27" d="M-179.9 68.026q-.252 0-.528-.046-.265-.034-.484-.15-.207-.103-.333-.299-.127-.195-.104-.506.023-.23.15-.425.126-.208.322-.38.057-.012.08.034.035.035.058.092.023.046.023.115.011.058.011.104 0 .035-.034.115l-.08.161-.093.161q-.046.07-.08.115.195.173.483.23.3.07.598.07.127 0 .253-.012l.242-.023q.242-.023.633-.161t.77-.345q.392-.219.68-.495.287-.288.31-.587.012-.172-.172-.276-.173-.104-.45-.173-.264-.069-.586-.126-.322-.07-.598-.161-.265-.092-.437-.23-.173-.15-.15-.392.012-.126.184-.253.184-.126.449-.264.264-.138.587-.276.333-.138.632-.277.311-.15.564-.287.253-.138.38-.276-.23-.08-.46-.104-.219-.023-.45-.023-.252 0-.505.023-.242.012-.518.012-.023.069-.035.172-.011.092-.103.092h-.092q-.196 0-.368-.08-.173-.092-.15-.357.012-.161.138-.242.127-.092.288-.138.16-.046.333-.057t.277-.023q.126-.012.287-.023.161-.012.357-.012.264 0 .53.035.264.023.482.115.219.08.346.241.126.15.103.392-.023.31-.31.575-.277.253-.656.46-.369.207-.76.368-.38.15-.61.265.277.08.61.161.334.08.622.23.299.138.483.391.195.242.16.656-.045.495-.402.886-.357.391-.851.656-.483.265-1.036.403-.552.15-.99.15z" transform="matrix(-.74385 -.28289 -.88878 1.00636 0 0)"/>
  </g>
</svg>
